<svg xmlns="http://www.w3.org/2000/svg" shape-rendering="geometricPrecision" text-rendering="geometricPrecision" image-rendering="optimizeQuality" fill-rule="evenodd" clip-rule="evenodd" viewBox="0 0 424 511.96"><path fill-rule="nonzero" d="M155.32 0C112.43 0 73.6 17.39 45.49 45.49 17.39 73.6 0 112.43 0 155.32s17.39 81.72 45.49 109.83c5 4.99 10.33 9.65 15.97 13.93 5.76-5.48 8.61-8.13 11.1-10.45l1.85-1.72c-5.88-4.28-11.42-9-16.55-14.13-24.94-24.94-40.36-59.4-40.36-97.46 0-38.06 15.43-72.52 40.36-97.46 24.94-24.94 59.4-40.36 97.46-40.36 38.06 0 72.52 15.42 97.46 40.36 9.98 9.98 18.43 21.49 24.98 34.14 7.48.52 14.77 2.25 21.58 5.06-7.88-19.46-19.59-36.96-34.19-51.57C237.04 17.39 198.21 0 155.32 0zm-52.24 464.01c15.61-1.44 59.11-5.17 72.75-26.2 1.37-2.13 12.76-21 12.76-21.1l46.97 17.89c1.01 5.14-26.53 43.6-31.53 47.76-6.38 5.3-12.5 8.21-18.98 10.66-21.75 8.18-40.46 14.78-65.12 18.94l-16.85-47.95zm77.07-119.49c-4.78 23.52.39 43.44 22.53 57.17 11.55 7.17 14.79 6.81 28 10.63l61.01 14c3.63.82 76.11 59.5 82.92 65.36l31.3-28.2c4.55-4.09-72.22-71.83-85.6-78.47-63.52-31.5-66.2 4.52-42.29-86.38 12.13 11.84 21.32 25.05 44.35 34.08 28.03 7.16 43.67-2.72 66.99-10.27L424 309.97l-14.95-42.22-34.64 12.46c-.98.33-3.46 1.24-7.81 2.75-10.8 2.61-20.35 9.48-27.19 6.18-22.66-10.96-36.11-57.21-99.4-62.25-9.52-.75-27.22-3.14-41.02-3.53-51.32-2.98-68.82 16.26-96.92 45.11-12.92 12.49-13.12 12.36-26.17 24.76l33.2 33.03c13.15-12.49 13.44-12.43 26.46-25.05 11.81-11.29 19.89-22.93 32.03-27.9 8.34-3.43 23.38-1.91 32.64-1.54l-20.08 72.75zm76.95-225c25.51-8.27 52.92 5.69 61.23 31.24 8.28 25.51-5.69 52.92-31.24 61.23-25.51 8.28-52.92-5.69-61.23-31.24-8.28-25.54 5.72-52.95 31.24-61.23zm-109.76 19.97a17.84 17.84 0 0 0-7.36 6.94h-25.04c.92-2.16.68-4.75-.87-6.75a6.733 6.733 0 0 0-9.44-1.21l-14.88 11.48a6.73 6.73 0 0 0-2.62 5.28v.19c.01 1.99.91 3.96 2.62 5.27l14.88 11.49c2.94 2.28 7.17 1.73 9.44-1.21 1.54-2 1.79-4.58.87-6.75h25.05c3.07 5.28 8.79 8.83 15.33 8.83 9.79 0 17.73-7.94 17.73-17.73 0-6.13-3.12-11.54-7.86-14.72l-.21-34.26c2.23.99 4.93.72 6.95-.93a6.722 6.722 0 0 0 .99-9.46L161.1 81.33a6.711 6.711 0 0 0-5.01-2.49h-.16c-2.12-.04-4.22.91-5.56 2.75l-11.16 15.13c-2.19 2.99-1.54 7.21 1.45 9.41a6.751 6.751 0 0 0 6.47.83l.21 32.53zm71.61-79.45c2.05-3.57.82-8.14-2.75-10.19-3.58-2.05-8.14-.82-10.19 2.75l-5.58 9.67c-2.05 3.57-.82 8.13 2.75 10.19 3.57 2.05 8.14.82 10.19-2.76l5.58-9.66zM52.57 206.01c-3.57 2.07-4.79 6.65-2.72 10.21 2.07 3.58 6.65 4.79 10.22 2.73l9.66-5.59c3.58-2.06 4.79-6.64 2.73-10.21a7.494 7.494 0 0 0-10.22-2.73l-9.67 5.59zm-11.56-58.15c-4.12 0-7.47 3.34-7.47 7.46s3.35 7.46 7.47 7.46h11.16a7.46 7.46 0 0 0 7.46-7.46c0-4.12-3.34-7.47-7.46-7.47l-11.16.01zm19.03-56.17a7.458 7.458 0 0 0-10.18 2.75c-2.06 3.57-.82 8.14 2.74 10.19l9.67 5.58c3.57 2.05 8.14.82 10.19-2.75 2.05-3.57.82-8.14-2.75-10.19l-9.67-5.58zm44.6-39.12c-2.07-3.57-6.65-4.79-10.22-2.72-3.57 2.07-4.79 6.65-2.72 10.22l5.58 9.66c2.07 3.58 6.65 4.79 10.22 2.73 3.57-2.07 4.79-6.65 2.72-10.22l-5.58-9.67zm58.15-11.56a7.47 7.47 0 0 0-7.47-7.47c-4.12 0-7.46 3.35-7.46 7.47v11.16c0 4.12 3.35 7.46 7.47 7.46a7.46 7.46 0 0 0 7.46-7.46V41.01z"/></svg>